<?xml version="1.0" encoding="utf-8"?>
<!-- Generator: Adobe Illustrator 18.0.0, SVG Export Plug-In . SVG Version: 6.00 Build 0)  -->
<!DOCTYPE svg PUBLIC "-//W3C//DTD SVG 1.1//EN" "http://www.w3.org/Graphics/SVG/1.1/DTD/svg11.dtd">
<svg version="1.1" id="Layer_1" xmlns="http://www.w3.org/2000/svg" xmlns:xlink="http://www.w3.org/1999/xlink" x="0px" y="0px"
	 viewBox="0 0 36 36" enable-background="new 0 0 36 36" xml:space="preserve">
<path d="M18.4,22c0,3.2-1.8,6.3-7.8,6.3c-4.7,0-9.4,0-9.4,0v-21c0,0,6.3,0,10.1,0c3.8,0,6.4,1.9,6.4,5.4c0,3.1-2,4-2.6,4.3
	C15.2,17.1,18.4,17.9,18.4,22z M6,15.6h4.5c1.7,0,3.1-0.5,3.1-2.4c0-1.8-1.2-2.2-3.6-2.2H6V15.6z M14,21.7c0-1.7-1.1-2.6-3.4-2.6H6
	v5.6h4.5C13.3,24.7,14,23.4,14,21.7z M34.8,21.7H23.8c0,2.4,1.7,3.7,3.7,3.7c2.3,0,3-1.7,3-1.7h4c-0.7,2.9-3.5,4.9-7.1,4.9
	c-4.4,0-7.6-2.8-7.6-7.8c0-5.4,3.2-8.1,7.5-8.1c4.8,0,7.5,3,7.5,8.1V21.7z M32,8.1h-9.1v2.1H32V8.1z M30.7,19.1
	c0-1.8-1.4-3.2-3.4-3.2c-2.1,0-3.2,1.5-3.4,3.2H30.7z"/>
</svg>
