<?xml version="1.0" encoding="utf-8"?>
<!-- Generator: Adobe Illustrator 18.0.0, SVG Export Plug-In . SVG Version: 6.00 Build 0)  -->
<!DOCTYPE svg PUBLIC "-//W3C//DTD SVG 1.1//EN" "http://www.w3.org/Graphics/SVG/1.1/DTD/svg11.dtd">
<svg version="1.1" id="Layer_1" xmlns="http://www.w3.org/2000/svg" xmlns:xlink="http://www.w3.org/1999/xlink" x="0px" y="0px"
	 viewBox="0 0 36 36" enable-background="new 0 0 36 36" xml:space="preserve">
<path d="M1.2,18c0-0.3,0-0.5,0-0.8c7-0.1,12.8-0.9,17.5-2.4c0.5,1.1,1,2.1,1.5,3.2c-0.4,0.1-0.9,0.2-1.3,0.4
	C13.7,20.3,9.2,24,5.6,29.4C2.9,26.4,1.2,22.4,1.2,18z M1.6,14.7C2.6,9.4,6.2,5,11,2.8c2.7,3.3,4.8,6.6,6.6,9.8
	C13.2,13.8,7.9,14.5,1.6,14.7z M18,34.8c-3.9,0-7.6-1.4-10.4-3.6c3.9-6.2,8.7-9.4,13.5-10.7c1.8,4.8,2.8,9.2,3.5,13
	C22.5,34.3,20.3,34.8,18,34.8z M13.8,1.8c1.4-0.3,2.8-0.5,4.2-0.5c4.3,0,8.2,1.6,11.2,4.3c-2.3,2.6-5.2,4.6-8.9,6.1
	C18.6,8.4,16.4,5,13.8,1.8z M23,17.4c-0.5-1.2-1-2.3-1.6-3.5c3.9-1.6,7-3.7,9.5-6.5c2.4,2.9,3.8,6.6,3.8,10.5
	C30.6,17,26.7,16.8,23,17.4z M27.2,32c-0.7-3.6-1.6-7.7-3.3-12.1c3.7-0.5,7.3-0.2,10.6,0.7C33.9,25.3,31.1,29.4,27.2,32z"/>
</svg>
