<?xml version="1.0" encoding="utf-8"?>
<!-- Generator: Adobe Illustrator 18.0.0, SVG Export Plug-In . SVG Version: 6.00 Build 0)  -->
<!DOCTYPE svg PUBLIC "-//W3C//DTD SVG 1.1//EN" "http://www.w3.org/Graphics/SVG/1.1/DTD/svg11.dtd">
<svg version="1.1" id="Layer_1" xmlns="http://www.w3.org/2000/svg" xmlns:xlink="http://www.w3.org/1999/xlink" x="0px" y="0px"
	 viewBox="0 0 36 36" enable-background="new 0 0 36 36" xml:space="preserve">
<path d="M34.8,32.7c0,1.1-1,2.1-2.1,2.1h-8.4v-13h4.2l0.7-4.8h-4.9v-3.8c0-1.4,0.7-2.2,2.1-2.2h3.1V6.6c0,0-1.4-0.2-3.4-0.2
	c-4.6,0-6.9,2.6-6.9,6.4v4.2H15v4.8h4.2v13H3.3c-1.1,0-2.1-1-2.1-2.1V3.3c0-1.1,1-2.1,2.1-2.1h29.4c1.1,0,2.1,1,2.1,2.1V32.7z"/>
</svg>
