<?xml version="1.0" encoding="utf-8"?>
<!-- Generator: Adobe Illustrator 18.0.0, SVG Export Plug-In . SVG Version: 6.00 Build 0)  -->
<!DOCTYPE svg PUBLIC "-//W3C//DTD SVG 1.1//EN" "http://www.w3.org/Graphics/SVG/1.1/DTD/svg11.dtd">
<svg version="1.1" id="Layer_1" xmlns="http://www.w3.org/2000/svg" xmlns:xlink="http://www.w3.org/1999/xlink" x="0px" y="0px"
	 viewBox="0 0 300 300" enable-background="new 0 0 300 300" xml:space="preserve">
<path d="M246,54.6H54c-17.6,0-32,14.4-32,32v128c0,17.6,14.4,32,32,32h192c17.6,0,32-14.4,32-32v-128C278,68.9,263.7,54.6,246,54.6z
	 M81.2,230.6l12.8-32h112l12.8,32H81.2z M262,214.6c0,8.8-7.2,16-16,16h-18.6l-14-35c-1.2-3-4.2-5-7.4-5H94c-3.3,0-6.2,2-7.4,5
	l-14,35H54c-8.8,0-16-7.2-16-16v-128c0-8.8,7.2-16,16-16h192c8.8,0,16,7.2,16,16V214.6z M98,118.6c-11,0-20,9-20,20s9,20,20,20
	s20-9,20-20S109.1,118.6,98,118.6z M98,150.6c-6.6,0-12-5.4-12-12s5.4-12,12-12s12,5.4,12,12S104.7,150.6,98,150.6z M202,118.6
	c-11,0-20,9-20,20s9,20,20,20s20-9,20-20S213.1,118.6,202,118.6z M202,150.6c-6.6,0-12-5.4-12-12s5.4-12,12-12s12,5.4,12,12
	S208.7,150.6,202,150.6z M202,102.6H98c-19.9,0-36,16.2-36,36c0,19.9,16.1,36,36,36h104c19.9,0,36-16.1,36-36
	C238,118.7,221.9,102.6,202,102.6z M202,166.6H98c-15.5,0-28-12.5-28-28s12.5-28,28-28h104c15.5,0,28,12.5,28,28
	S217.5,166.6,202,166.6z"/>
</svg>
