<?xml version="1.0" encoding="utf-8"?>
<!-- Generator: Adobe Illustrator 18.0.0, SVG Export Plug-In . SVG Version: 6.00 Build 0)  -->
<!DOCTYPE svg PUBLIC "-//W3C//DTD SVG 1.1//EN" "http://www.w3.org/Graphics/SVG/1.1/DTD/svg11.dtd">
<svg version="1.1" id="Layer_1" xmlns="http://www.w3.org/2000/svg" xmlns:xlink="http://www.w3.org/1999/xlink" x="0px" y="0px"
	 viewBox="0 0 300 300" enable-background="new 0 0 300 300" xml:space="preserve">
<path d="M261,85.6h-80v-16c0-8.8-7.2-16-16-16H37c-8.8,0-16,7.2-16,16v64c0,44.1,35.9,80,80,80c10,0,19.6-1.9,28.4-5.2
	c14.2,22.4,39.2,37.2,67.6,37.2c44.1,0,80-35.9,80-80v-64C277,92.7,269.9,85.6,261,85.6z M37,133.6v-64h128v64c0,35.3-28.7,64-64,64
	C65.7,197.6,37,168.9,37,133.6z M261,165.6c0,35.3-28.7,64-64,64c-22.2,0-41.7-11.3-53.2-28.5c22.3-14.2,37.2-39.2,37.2-67.5v-32h80
	V165.6z M101,177.6c-14,0-26.8-6.4-35.2-17.6c-1.3-1.8-1-4.3,0.8-5.6c1.8-1.3,4.3-1,5.6,0.8c6.9,9.2,17.4,14.4,28.8,14.4
	c11.4,0,21.9-5.2,28.8-14.4c1.3-1.8,3.8-2.1,5.6-0.8s2.1,3.8,0.8,5.6C127.8,171.1,115,177.6,101,177.6L101,177.6z M165,201.6
	c-0.8,0-1.7-0.3-2.4-0.8c-1.8-1.3-2.1-3.8-0.8-5.6c8.4-11.2,21.2-17.6,35.2-17.6c14,0,26.8,6.4,35.2,17.6c1.3,1.8,1,4.3-0.8,5.6
	c-1.8,1.3-4.3,1-5.6-0.8c-6.9-9.1-17.4-14.4-28.8-14.4c-11.4,0-21.9,5.2-28.8,14.4C167.5,201,166.3,201.6,165,201.6L165,201.6z
	 M53,113.6c-0.8,0-1.7-0.3-2.4-0.8c-1.8-1.3-2.1-3.8-0.8-5.6c4.6-6.1,11.6-9.6,19.2-9.6c7.6,0,14.6,3.5,19.2,9.6
	c1.3,1.8,1,4.3-0.8,5.6c-1.8,1.3-4.3,1-5.6-0.8c-3.1-4.1-7.7-6.4-12.8-6.4c-5.1,0-9.7,2.3-12.8,6.4C55.5,113,54.3,113.6,53,113.6
	L53,113.6z M117,113.6c-0.8,0-1.7-0.3-2.4-0.8c-1.8-1.3-2.1-3.8-0.8-5.6c4.6-6.1,11.6-9.6,19.2-9.6c7.6,0,14.6,3.5,19.2,9.6
	c1.3,1.8,1,4.3-0.8,5.6c-1.8,1.3-4.3,1-5.6-0.8c-3.1-4.1-7.7-6.4-12.8-6.4c-5.1,0-9.7,2.3-12.8,6.4C119.5,113,118.3,113.6,117,113.6
	L117,113.6z M229,153.6c-7.6,0-14.6-3.5-19.2-9.6c-1.3-1.8-1-4.3,0.8-5.6c1.8-1.3,4.3-1,5.6,0.8c3.1,4.1,7.7,6.4,12.8,6.4
	c5.1,0,9.7-2.3,12.8-6.4c1.3-1.8,3.8-2.1,5.6-0.8c1.8,1.3,2.1,3.8,0.8,5.6C243.7,150.1,236.7,153.6,229,153.6L229,153.6z"/>
</svg>
