<?xml version="1.0" encoding="utf-8"?>
<!-- Generator: Adobe Illustrator 18.0.0, SVG Export Plug-In . SVG Version: 6.00 Build 0)  -->
<!DOCTYPE svg PUBLIC "-//W3C//DTD SVG 1.1//EN" "http://www.w3.org/Graphics/SVG/1.1/DTD/svg11.dtd">
<svg version="1.1" id="Layer_1" xmlns="http://www.w3.org/2000/svg" xmlns:xlink="http://www.w3.org/1999/xlink" x="0px" y="0px"
	 viewBox="0 0 300 300" enable-background="new 0 0 300 300" xml:space="preserve">
<path d="M102,54.6c13.1,0,24.3,7.9,29.3,19.1c8.5-2,17.4-3.1,26.7-3.1c53,0,96,35.8,96,80c0,26.8-15.8,50.5-40,65v31h-24V226
	c-10,2.9-20.8,4.6-32,4.6s-22-1.6-32-4.6v20.6h-24v-31c-19.3-11.6-33.2-28.9-38.1-49H46v-32H64c4.9-20.1,18.8-37.4,38.1-49V54.6
	 M102,38.6c-8.8,0-16,7.2-16,16V77C70.6,88,59,102.4,52.4,118.6H46c-8.8,0-16,7.2-16,16v32c0,8.8,7.2,16,16,16h6.3
	c6.6,16.2,18.2,30.5,33.7,41.6v22.4c0,8.8,7.2,16,16,16h24c8.8,0,16-7.2,16-16v-1c5.3,0.6,10.6,1,16,1s10.7-0.3,16-1v1
	c0,8.8,7.2,16,16,16h24c8.8,0,16-7.2,16-16v-22.4c25.2-18.1,40-45.1,40-73.6c0-26.2-12-50.7-33.9-68.9c-21-17.5-48.7-27.1-78.1-27.1
	c-6.4,0-12.8,0.5-19,1.4C130,45.1,116.6,38.6,102,38.6L102,38.6z M118,122.6c0-6.6-5.4-12-12-12s-12,5.4-12,12s5.4,12,12,12
	S118,129.2,118,122.6z M182,94.6h-48v8h48V94.6z"/>
</svg>
