<?xml version="1.0" encoding="utf-8"?>
<!-- Generator: Adobe Illustrator 18.0.0, SVG Export Plug-In . SVG Version: 6.00 Build 0)  -->
<!DOCTYPE svg PUBLIC "-//W3C//DTD SVG 1.1//EN" "http://www.w3.org/Graphics/SVG/1.1/DTD/svg11.dtd">
<svg version="1.1" id="Layer_1" xmlns="http://www.w3.org/2000/svg" xmlns:xlink="http://www.w3.org/1999/xlink" x="0px" y="0px"
	 viewBox="0 0 300 300" enable-background="new 0 0 300 300" xml:space="preserve">
<path d="M271.7,57.8C254.9,45.2,235,38.6,214,38.6c-15.1,0-30.2,3.6-43.6,10.5c-7.3,3.8-14.2,8.5-20.4,14c-6.2-5.5-13-10.2-20.4-14
	c-13.4-6.8-28.5-10.5-43.6-10.5c-21,0-40.9,6.6-57.6,19.2c-4,3-6.4,7.8-6.4,12.8v160c0,6.1,3.4,11.6,8.9,14.3
	c2.3,1.1,4.7,1.7,7.1,1.7c3.4,0,6.8-1.1,9.6-3.2c11.1-8.4,24.4-12.8,38.4-12.8c20.3,0,39,9.3,51.2,25.6c3,4,7.8,6.4,12.8,6.4
	c5,0,9.8-2.4,12.8-6.4c12.2-16.3,30.9-25.6,51.2-25.6c14,0,27.3,4.4,38.4,12.8c2.8,2.1,6.2,3.2,9.6,3.2c2.4,0,4.9-0.6,7.1-1.7
	c5.4-2.7,8.9-8.2,8.9-14.3v-160C278,65.5,275.7,60.8,271.7,57.8z M86,214.6c-18,0-34.6,6-48,16v-160c13.4-10,30-16,48-16
	c23.9,0,45.3,10.5,60,27.1v160C131.4,225,109.9,214.6,86,214.6z M262,230.6c-13.4-10-30-16-48-16c-23.9,0-45.3,10.5-60,27.1v-160
	c14.7-16.6,36.1-27.1,60-27.1c18,0,34.6,6,48,16V230.6z"/>
</svg>
