<?xml version="1.0" encoding="utf-8"?>
<!-- Generator: Adobe Illustrator 18.0.0, SVG Export Plug-In . SVG Version: 6.00 Build 0)  -->
<!DOCTYPE svg PUBLIC "-//W3C//DTD SVG 1.1//EN" "http://www.w3.org/Graphics/SVG/1.1/DTD/svg11.dtd">
<svg version="1.1" id="Layer_1" xmlns="http://www.w3.org/2000/svg" xmlns:xlink="http://www.w3.org/1999/xlink" x="0px" y="0px"
	 viewBox="0 0 300 300" enable-background="new 0 0 300 300" xml:space="preserve">
<path d="M242,71l24-24h-24V23l-24,24v18.3l-9.4,9.4C190.1,57.5,165.2,47,138,47C80.7,47,34,93.7,34,151c0,38.8,21.4,72.7,52.9,90.6
	l-12.2,26.1c-1.9,4-0.1,8.8,3.9,10.6c4,1.9,8.8,0.1,10.6-3.9l12.1-26c11.4,4.3,23.7,6.7,36.6,6.7c12.9,0,25.2-2.4,36.6-6.7l12.2,26
	c1.4,2.9,4.2,4.6,7.3,4.6c1.1,0,2.3-0.2,3.4-0.8c4-1.9,5.7-6.6,3.9-10.6l-12.2-26.1c31.6-17.9,52.9-51.8,52.9-90.6
	c0-27.2-10.5-52.1-27.7-70.6l9.4-9.4H242z M226,151c0,48.6-39.4,88-88,88s-88-39.4-88-88s39.4-88,88-88c22.9,0,43.7,8.7,59.3,23
	l-22.7,22.7C164.8,100.2,152,95,138,95c-30.9,0-56,25.1-56,56s25.1,56,56,56s56-25.1,56-56c0-14-5.2-26.8-13.7-36.6L203,91.7
	C217.3,107.3,226,128.1,226,151z M151.9,131.4c-3.9-2.8-8.7-4.4-13.9-4.4c-13.3,0-24,10.7-24,24s10.7,24,24,24s24-10.7,24-24
	c0-5.2-1.6-10-4.4-13.9l17.1-17.1c7.1,8.4,11.4,19.2,11.4,31c0,26.5-21.5,48-48,48c-26.5,0-48-21.5-48-48c0-26.5,21.5-48,48-48
	c11.8,0,22.6,4.3,31,11.4L151.9,131.4z"/>
</svg>
