<?xml version="1.0" encoding="utf-8"?>
<!-- Generator: Adobe Illustrator 18.0.0, SVG Export Plug-In . SVG Version: 6.00 Build 0)  -->
<!DOCTYPE svg PUBLIC "-//W3C//DTD SVG 1.1//EN" "http://www.w3.org/Graphics/SVG/1.1/DTD/svg11.dtd">
<svg version="1.1" id="Layer_1" xmlns="http://www.w3.org/2000/svg" xmlns:xlink="http://www.w3.org/1999/xlink" x="0px" y="0px"
	 viewBox="0 0 300 300" enable-background="new 0 0 300 300" xml:space="preserve">
<path d="M244,45.6c8.8,0,16,7.2,16,16v176c0,8.8-7.2,16-16,16H58c-8.8,0-16-7.2-16-16v-176c0-8.8,7.2-16,16-16H244 M244,29.6H58
	c-17.6,0-32,14.4-32,32v176c0,17.6,14.4,32,32,32h186c17.6,0,32-14.4,32-32v-176C276,43.9,261.7,29.6,244,29.6L244,29.6z M66,125.6
	c2,0,4.1-0.8,5.7-2.3l24-24c3.1-3.1,3.1-8.2,0-11.3l-24-24c-3.1-3.1-8.2-3.1-11.3,0c-3.1,3.1-3.1,8.2,0,11.3l18.3,18.3l-18.3,18.3
	c-3.1,3.1-3.1,8.2,0,11.3C62,124.8,64,125.6,66,125.6L66,125.6z M154,125.6c4.4,0,8-3.6,8-8s-3.6-8-8-8h-40c-4.4,0-8,3.6-8,8
	s3.6,8,8,8H154L154,125.6z"/>
</svg>
