<?xml version="1.0" encoding="utf-8"?>
<!-- Generator: Adobe Illustrator 18.0.0, SVG Export Plug-In . SVG Version: 6.00 Build 0)  -->
<!DOCTYPE svg PUBLIC "-//W3C//DTD SVG 1.1//EN" "http://www.w3.org/Graphics/SVG/1.1/DTD/svg11.dtd">
<svg version="1.1" id="Layer_1" xmlns="http://www.w3.org/2000/svg" xmlns:xlink="http://www.w3.org/1999/xlink" x="0px" y="0px"
	 viewBox="0 0 300 300" enable-background="new 0 0 300 300" xml:space="preserve">
<path d="M278,158.6v-8c0-2.9-0.8-5.7-2.3-8.2l-48-80c-2.9-4.8-8.1-7.8-13.7-7.8H86c-5.9,0-11.2,3.2-14,8.3
	c-0.5,0.9-12.3,22.7-24.4,47.7C24.7,158.4,22,174.6,22,182.6v8c0,30.9,25.1,56,56,56h184c8.8,0,16-7.2,16-16v-8
	c0-5.9-3.2-11.1-8-13.9v-36.3C274.8,169.7,278,164.5,278,158.6z M54,190.6c0-13.3,11-24,24-24c0,0,176,0,176,0v48l-176,0
	C65,214.6,54,203.8,54,190.6z M262,230.6H78c-22.1,0-40-17.9-40-40v-8c0-24,48-112,48-112h128l48,80v8c0,0-183.9,0-184,0
	c-17.4,0-32,14.4-32,32c0,17.6,14.7,31.9,32,32c0.1,0,184,0,184,0V230.6z"/>
</svg>
