<?xml version="1.0" encoding="utf-8"?>
<!-- Generator: Adobe Illustrator 18.0.0, SVG Export Plug-In . SVG Version: 6.00 Build 0)  -->
<!DOCTYPE svg PUBLIC "-//W3C//DTD SVG 1.1//EN" "http://www.w3.org/Graphics/SVG/1.1/DTD/svg11.dtd">
<svg version="1.1" id="Layer_1" xmlns="http://www.w3.org/2000/svg" xmlns:xlink="http://www.w3.org/1999/xlink" x="0px" y="0px"
	 viewBox="0 0 300 300" enable-background="new 0 0 300 300" xml:space="preserve">
<path d="M272.4,90.4c-2.9-2.5-6.6-3.8-10.3-3.8c-0.9,0-1.8,0.1-2.6,0.2l-48,8c-4.9,0.8-8.9,3.8-11.2,7.8H198v-16c0-8.8-7.2-16-16-16
	H38c-8.8,0-16,7.2-16,16v128c0,8.8,7.2,16,16,16h144c8.8,0,16-7.2,16-16v-16h2.1c2.3,4,6.4,7,11.2,7.8l48,8c0.9,0.1,1.8,0.2,2.6,0.2
	c3.8,0,7.4-1.3,10.3-3.8c3.6-3,5.7-7.5,5.7-12.2v-96C278,97.9,276,93.4,272.4,90.4z M182,214.6H38v-128h144V214.6z M190,182.6v-64
	h16v64H190z M262,198.6l-48-8v-8v-64v-8l48-8V198.6z"/>
</svg>
