<?xml version="1.0" encoding="utf-8"?>
<!-- Generator: Adobe Illustrator 18.0.0, SVG Export Plug-In . SVG Version: 6.00 Build 0)  -->
<!DOCTYPE svg PUBLIC "-//W3C//DTD SVG 1.1//EN" "http://www.w3.org/Graphics/SVG/1.1/DTD/svg11.dtd">
<svg version="1.1" id="Layer_1" xmlns="http://www.w3.org/2000/svg" xmlns:xlink="http://www.w3.org/1999/xlink" x="0px" y="0px"
	 viewBox="0 0 300 300" enable-background="new 0 0 300 300" xml:space="preserve">
<path d="M174,30.6h-50.1c-2.8-4.8-7.9-8-13.9-8H70c-8.8,0-16,7.2-16,16v48c0,8.8,7.2,16,16,16h40c2.9,0,5.6-0.8,8-2.1V150l-8,111.4
	c-0.3,4.4,1.2,8.8,4.2,12c3,3.3,7.3,5.1,11.7,5.1h48c4.4,0,8.7-1.8,11.7-5.1c3-3.2,4.6-7.6,4.2-12L182,150V87.4l8.7-0.9
	c8.5,0.3,15.3,7.4,15.3,16c0,8.8,7.2,16,16,16h8c8.8,0,16-7.2,16-16C246,62.9,213.7,30.6,174,30.6z M70,86.6v-48h40v48H70z
	 M126,262.6l7.4-104h33.1l7.4,104H126z M166,150.6h-32V92.2l32-3.2V150.6z M222,102.6c0-17.7-14.3-32-32-32l-72,7.2V46.6h56
	c30.9,0,56,25.1,56,56H222z"/>
</svg>
