<?xml version="1.0" encoding="utf-8"?>
<!-- Generator: Adobe Illustrator 18.0.0, SVG Export Plug-In . SVG Version: 6.00 Build 0)  -->
<!DOCTYPE svg PUBLIC "-//W3C//DTD SVG 1.1//EN" "http://www.w3.org/Graphics/SVG/1.1/DTD/svg11.dtd">
<svg version="1.1" id="Layer_1" xmlns="http://www.w3.org/2000/svg" xmlns:xlink="http://www.w3.org/1999/xlink" x="0px" y="0px"
	 viewBox="0 0 300 300" enable-background="new 0 0 300 300" xml:space="preserve">
<path d="M227.3,46.1c-26-7.1-56.9-8.6-78.2-8.6S96.8,39,70.8,46.1C29.7,57.3,21,78.1,21,93.6v32c0,8.8,7.2,16,16,16h26.1l-24.4,48.8
	c-1.1,2.2-1.7,4.7-1.7,7.2v48c0,8.8,7.2,16,16,16h192c8.8,0,16-7.2,16-16v-48c0-2.5-0.6-4.9-1.7-7.2l-24.4-48.8H261
	c8.8,0,16-7.2,16-16v-32C277,78.1,268.4,57.3,227.3,46.1z M245,245.6H53v-48l48-96h96l48,96V245.6z M261,125.6h-34.1l-15.6-31.2
	c-2.7-5.4-8.2-8.8-14.3-8.8h-96c-6.1,0-11.6,3.4-14.3,8.8l-15.6,31.2H37v-32c0-32,64-40,112-40s112,8,112,40V125.6z M149,125.6
	c22.1,0,40,17.9,40,40s-17.9,40-40,40c-22.1,0-40-17.9-40-40S127,125.6,149,125.6 M149,117.6c-26.5,0-48,21.5-48,48s21.5,48,48,48
	s48-21.5,48-48S175.6,117.6,149,117.6L149,117.6z"/>
</svg>
