<?xml version="1.0" encoding="utf-8"?>
<!-- Generator: Adobe Illustrator 18.0.0, SVG Export Plug-In . SVG Version: 6.00 Build 0)  -->
<!DOCTYPE svg PUBLIC "-//W3C//DTD SVG 1.1//EN" "http://www.w3.org/Graphics/SVG/1.1/DTD/svg11.dtd">
<svg version="1.1" id="Layer_1" xmlns="http://www.w3.org/2000/svg" xmlns:xlink="http://www.w3.org/1999/xlink" x="0px" y="0px"
	 viewBox="0 0 300 300" enable-background="new 0 0 300 300" xml:space="preserve">
<g>
	<path d="M237,21.6H133c-26.5,0-48,21.5-48,48v128H61c-22.1,0-40,17.9-40,40s17.9,40,40,40h136c17.6,0,32-14.4,32-32v-144h8
		c22.1,0,40-17.9,40-40S259.1,21.6,237,21.6z M85,245.6c0,8.8-7.2,16-16,16h-8c-13.2,0-24-10.8-24-24s10.8-24,24-24h24V245.6z
		 M213,245.6c0,8.8-7.2,16-16,16H96.8c2.7-4.7,4.3-10.2,4.3-16v-176c0-17.6,14.4-32,32-32c13.2,0,24,10.8,24,24s-10.8,24-24,24
		c-4.4,0-8,3.6-8,8s3.6,8,8,8h80V245.6z M237,85.6h-72c5-6.7,8-15,8-24s-3-17.3-8-24h72c13.2,0,24,10.8,24,24S250.3,85.6,237,85.6z"
		/>
	<path d="M125,129.6c0,2.2,1.8,4,4,4h56c2.2,0,4-1.8,4-4s-1.8-4-4-4h-56C126.8,125.6,125,127.4,125,129.6z"/>
	<path d="M185.1,157.6h-56c-2.2,0-4,1.8-4,4s1.8,4,4,4h56c2.2,0,4-1.8,4-4S187.3,157.6,185.1,157.6z"/>
	<path d="M185.1,189.6h-56c-2.2,0-4,1.8-4,4s1.8,4,4,4h56c2.2,0,4-1.8,4-4S187.3,189.6,185.1,189.6z"/>
	<path d="M185.1,221.6L185.1,221.6h-56h0c-2.2,0-4,1.8-4,4s1.8,4,4,4l0,0h56l0,0c2.2,0,4-1.8,4-4
		C189.1,223.4,187.3,221.6,185.1,221.6z"/>
</g>
</svg>
