<?xml version="1.0" encoding="utf-8"?>
<!-- Generator: Adobe Illustrator 18.0.0, SVG Export Plug-In . SVG Version: 6.00 Build 0)  -->
<!DOCTYPE svg PUBLIC "-//W3C//DTD SVG 1.1//EN" "http://www.w3.org/Graphics/SVG/1.1/DTD/svg11.dtd">
<svg version="1.1" id="Layer_1" xmlns="http://www.w3.org/2000/svg" xmlns:xlink="http://www.w3.org/1999/xlink" x="0px" y="0px"
	 viewBox="0 0 300 300" enable-background="new 0 0 300 300" xml:space="preserve">
<path d="M134,102.6c-35.3,0-64,28.7-64,64s28.7,64,64,64s64-28.7,64-64S169.4,102.6,134,102.6z M134,222.6c-30.9,0-56-25.1-56-56
	s25.1-56,56-56s56,25.1,56,56S164.9,222.6,134,222.6z M226,102.6c-11,0-20,9-20,20s9,20,20,20s20-9,20-20S237.1,102.6,226,102.6z
	 M226,134.6c-6.6,0-12-5.4-12-12s5.4-12,12-12s12,5.4,12,12S232.7,134.6,226,134.6z M246,70.6h-32c0,0,0,0,0,0c0-17.6-14.4-32-32-32
	h-64c-17.6,0-32,14.3-32,32c0,0,0,0,0,0H54c-17.6,0-32,14.4-32,32v128c0,17.6,14.4,32,32,32h192c17.6,0,32-14.4,32-32v-128
	C278,84.9,263.7,70.6,246,70.6z M102,70.6c0-8.8,7.2-16,16-16h64c8.8,0,16,7.2,16,16v8h-96V70.6z M262,230.6c0,8.8-7.2,16-16,16H54
	c-8.8,0-16-7.2-16-16v-128c0-8.8,7.2-16,16-16h192c8.8,0,16,7.2,16,16V230.6z"/>
</svg>
