<?xml version="1.0" encoding="utf-8"?>
<!-- Generator: Adobe Illustrator 18.0.0, SVG Export Plug-In . SVG Version: 6.00 Build 0)  -->
<!DOCTYPE svg PUBLIC "-//W3C//DTD SVG 1.1//EN" "http://www.w3.org/Graphics/SVG/1.1/DTD/svg11.dtd">
<svg version="1.1" id="Layer_1" xmlns="http://www.w3.org/2000/svg" xmlns:xlink="http://www.w3.org/1999/xlink" x="0px" y="0px"
	 viewBox="0 0 300 300" enable-background="new 0 0 300 300" xml:space="preserve">
<path d="M261,100.6h-48v-16c0-17.6-14.4-32-32-32h-64c-17.6,0-32,14.4-32,32v16H37c-8.8,0-16,7.2-16,16v112c0,8.8,7.2,16,16,16h224
	c8.8,0,16-7.2,16-16v-112C277,107.7,269.9,100.6,261,100.6z M101,84.6c0-8.8,7.2-16,16-16h64c8.8,0,16,7.2,16,16v16h-8v-16
	c0-4.4-3.6-8-8-8h-64c-4.4,0-8,3.6-8,8v16h-8V84.6z M181,84.6v16h-64v-16H181z M261,116.6v112H37v-112H261z M161,140.6v20h20v24h-20
	v20h-24v-20h-20v-24h20v-20H161 M161,132.6h-24c-4.4,0-8,3.6-8,8v12h-12c-4.4,0-8,3.6-8,8v24c0,4.4,3.6,8,8,8h12v12c0,4.4,3.6,8,8,8
	h24c4.4,0,8-3.6,8-8v-12h12c4.4,0,8-3.6,8-8v-24c0-4.4-3.6-8-8-8h-12v-12C169,136.1,165.5,132.6,161,132.6L161,132.6z"/>
</svg>
