<?xml version="1.0" encoding="utf-8"?>
<!-- Generator: Adobe Illustrator 18.0.0, SVG Export Plug-In . SVG Version: 6.00 Build 0)  -->
<!DOCTYPE svg PUBLIC "-//W3C//DTD SVG 1.1//EN" "http://www.w3.org/Graphics/SVG/1.1/DTD/svg11.dtd">
<svg version="1.1" id="Layer_1" xmlns="http://www.w3.org/2000/svg" xmlns:xlink="http://www.w3.org/1999/xlink" x="0px" y="0px"
	 viewBox="0 0 300 300" enable-background="new 0 0 300 300" xml:space="preserve">
<path d="M213,69.6v152H85v-152H213 M213,61.6H85c-4.4,0-8,3.6-8,8v152c0,4.4,3.6,8,8,8h128c4.4,0,8-3.6,8-8v-152
	C221,65.1,217.5,61.6,213,61.6L213,61.6z M229,37.6c8.8,0,16,7.2,16,16v192c0,8.8-7.2,16-16,16H69c-8.8,0-16-7.2-16-16v-192
	c0-8.8,7.2-16,16-16H229 M229,21.6H69c-17.6,0-32,14.4-32,32v192c0,17.6,14.4,32,32,32h160c17.6,0,32-14.4,32-32v-192
	C261,35.9,246.7,21.6,229,21.6L229,21.6z M149,253.6c4.4,0,8-3.6,8-8s-3.6-8-8-8s-8,3.6-8,8S144.6,253.6,149,253.6z"/>
</svg>
