<?xml version="1.0" encoding="utf-8"?>
<!-- Generator: Adobe Illustrator 18.0.0, SVG Export Plug-In . SVG Version: 6.00 Build 0)  -->
<!DOCTYPE svg PUBLIC "-//W3C//DTD SVG 1.1//EN" "http://www.w3.org/Graphics/SVG/1.1/DTD/svg11.dtd">
<svg version="1.1" id="Layer_1" xmlns="http://www.w3.org/2000/svg" xmlns:xlink="http://www.w3.org/1999/xlink" x="0px" y="0px"
	 viewBox="0 0 300 300" enable-background="new 0 0 300 300" xml:space="preserve">
<path d="M255.7,25.8c-2.8-2.1-6.2-3.2-9.6-3.2c-1.5,0-2.9,0.2-4.4,0.6l-112,32c-6.9,2-11.6,8.2-11.6,15.4v138.1
	c-8.8-6.5-20.1-10.1-32-10.1c-12,0-23.4,3.6-32.2,10.2c-10,7.5-15.8,18.4-15.8,29.8s5.7,22.3,15.8,29.8c8.8,6.6,20.2,10.2,32.2,10.2
	s23.4-3.6,32.2-10.2c10-7.5,15.8-18.4,15.8-29.8V127.2l112-32v81.4c-8.8-6.5-20.1-10.1-32-10.1c-12,0-23.4,3.6-32.2,10.2
	c-10,7.5-15.8,18.4-15.8,29.8s5.7,22.3,15.8,29.8c8.8,6.6,20.2,10.2,32.2,10.2s23.4-3.6,32.2-10.2c10-7.5,15.8-18.4,15.8-29.8v-168
	C262,33.5,259.7,28.8,255.7,25.8z M86,262.6c-17.7,0-32-10.7-32-24s14.3-24,32-24c17.7,0,32,10.7,32,24S103.7,262.6,86,262.6z
	 M214,230.6c-17.7,0-32-10.7-32-24s14.3-24,32-24c17.7,0,32,10.7,32,24S231.7,230.6,214,230.6z M246,78.6l-112,32v-40l112-32V78.6z"
	/>
</svg>
