<?xml version="1.0" encoding="utf-8"?>
<!-- Generator: Adobe Illustrator 18.0.0, SVG Export Plug-In . SVG Version: 6.00 Build 0)  -->
<!DOCTYPE svg PUBLIC "-//W3C//DTD SVG 1.1//EN" "http://www.w3.org/Graphics/SVG/1.1/DTD/svg11.dtd">
<svg version="1.1" id="Layer_1" xmlns="http://www.w3.org/2000/svg" xmlns:xlink="http://www.w3.org/1999/xlink" x="0px" y="0px"
	 viewBox="0 0 36 36" enable-background="new 0 0 36 36" xml:space="preserve">
<path d="M5.3,9.3c-2.5,0-4.1-1.7-4.1-3.8c0-2.2,1.7-3.8,4.2-3.8c2.5,0,4.1,1.7,4.2,3.8C9.6,7.6,8,9.3,5.3,9.3L5.3,9.3z M8.9,12.7
	v21.7h-7V12.7H8.9z M20.1,21.8c0-2.8,1.8-4.2,3.9-4.2s3.8,1.4,3.8,4.9v11.9h7V21.8c0-6.3-3.5-9.8-8.4-9.8c-2.8,0-4.9,1.6-6.3,3.7
	l-0.2-3H13c0,0.7,0.1,4.9,0.1,4.9v16.8h7V21.8z"/>
</svg>
