<?xml version="1.0" encoding="utf-8"?>
<!-- Generator: Adobe Illustrator 18.0.0, SVG Export Plug-In . SVG Version: 6.00 Build 0)  -->
<!DOCTYPE svg PUBLIC "-//W3C//DTD SVG 1.1//EN" "http://www.w3.org/Graphics/SVG/1.1/DTD/svg11.dtd">
<svg version="1.1" id="Layer_1" xmlns="http://www.w3.org/2000/svg" xmlns:xlink="http://www.w3.org/1999/xlink" x="0px" y="0px"
	 viewBox="0 0 36 36" enable-background="new 0 0 36 36" xml:space="preserve">
<path d="M31.4,11.2c0,0.3,0,0.6,0,0.9c0,9.1-6.9,19.6-19.6,19.6c-3.9,0-7.5-0.9-10.6-2.8c0.5,0.1,1.1,0.1,1.6,0.1
	c3.2,0,6.2-1.4,8.5-3.3c-3,0-5.6-2.1-6.4-4.8C5.4,21,5.8,21,6.3,21c0.6,0,1.2-0.1,1.8-0.2C5,20.2,2.6,17.4,2.6,14c0,0,0,0,0-0.1
	c0.9,0.5,2,0.8,3.1,0.9c-1.9-1.2-3.1-3.3-3.1-5.7c0-1.3,0.4-2.3,0.9-3.3C7,9.9,12,12.5,17.7,12.8c-0.1-0.5-0.1-1-0.1-1.6
	c0-3.8,3.1-6.9,6.9-6.9c2,0,3.8,0.9,5.1,2.2c1.5-0.3,3-0.9,4.3-1.7c-0.5,1.6-1.6,3-3,3.8c1.4-0.2,2.7-0.5,4-1.1
	C33.8,9,32.7,10.2,31.4,11.2z"/>
</svg>
