<?xml version="1.0" encoding="utf-8"?>
<!-- Generator: Adobe Illustrator 18.0.0, SVG Export Plug-In . SVG Version: 6.00 Build 0)  -->
<!DOCTYPE svg PUBLIC "-//W3C//DTD SVG 1.1//EN" "http://www.w3.org/Graphics/SVG/1.1/DTD/svg11.dtd">
<svg version="1.1" id="Layer_1" xmlns="http://www.w3.org/2000/svg" xmlns:xlink="http://www.w3.org/1999/xlink" x="0px" y="0px"
	 viewBox="0 0 300 300" enable-background="new 0 0 300 300" xml:space="preserve">
<path d="M197,21.6h-96c-17.6,0-32,14.4-32,32v192c0,17.6,14.4,32,32,32h96c17.6,0,32-14.4,32-32v-192C229,35.9,214.7,21.6,197,21.6z
	 M85,53.6c0-8.8,7.2-16,16-16h96c8.8,0,16,7.2,16,16v24H85V53.6z M85,85.6h128v120H85V85.6z M213,245.6c0,8.8-7.2,16-16,16h-96
	c-8.8,0-16-7.2-16-16v-32h128V245.6z M149,253.6c8.8,0,16-7.2,16-16s-7.2-16-16-16s-16,7.2-16,16S140.2,253.6,149,253.6z M149,229.6
	c4.4,0,8,3.6,8,8s-3.6,8-8,8s-8-3.6-8-8S144.6,229.6,149,229.6z M169.1,57.6c0,2.2-1.8,4-4,4h-32c-2.2,0-4-1.8-4-4s1.8-4,4-4h32
	C167.3,53.6,169.1,55.4,169.1,57.6z"/>
</svg>
