<?xml version="1.0" encoding="utf-8"?>
<!-- Generator: Adobe Illustrator 18.0.0, SVG Export Plug-In . SVG Version: 6.00 Build 0)  -->
<!DOCTYPE svg PUBLIC "-//W3C//DTD SVG 1.1//EN" "http://www.w3.org/Graphics/SVG/1.1/DTD/svg11.dtd">
<svg version="1.1" id="Layer_1" xmlns="http://www.w3.org/2000/svg" xmlns:xlink="http://www.w3.org/1999/xlink" x="0px" y="0px"
	 viewBox="0 0 300 300" enable-background="new 0 0 300 300" xml:space="preserve">
<path d="M150,22.6c-70.7,0-128,57.3-128,128c0,70.7,57.3,128,128,128c70.7,0,128-57.3,128-128C278,79.9,220.7,22.6,150,22.6z
	 M150,38.6c29.9,0,58,11.6,79.2,32.8c0.9,0.9,1.8,1.9,2.7,2.9c-1.9,1.8-3.9,3.5-5.9,5.2l-4.6-6.3c-1.3-1.8-3.8-2.2-5.6-0.9
	c-1.8,1.3-2.2,3.8-0.9,5.6l4.7,6.5c-3.1,2.2-6.4,4.3-9.7,6.3l-3.8-7.4c-1-2-3.4-2.8-5.4-1.7c-2,1-2.8,3.4-1.7,5.4l3.9,7.6
	c-3.5,1.7-7,3.2-10.6,4.6l-2.7-8.3c-0.7-2.1-2.9-3.3-5-2.6c-2.1,0.7-3.3,2.9-2.6,5l2.7,8.3c-3.7,1.1-7.5,2-11.3,2.8l-1.4-8.8
	c-0.3-2.2-2.4-3.7-4.6-3.3c-2.2,0.3-3.7,2.4-3.3,4.6l1.4,8.8c-3.8,0.5-7.7,0.8-11.6,0.9v-7.9c0-2.2-1.8-4-4-4s-4,1.8-4,4v7.9
	c-3.9-0.1-7.8-0.4-11.6-0.9l1.4-8.8c0.3-2.2-1.1-4.2-3.3-4.6c-2.2-0.3-4.2,1.1-4.6,3.3l-1.4,8.8c-3.8-0.7-7.6-1.7-11.3-2.8l2.7-8.4
	c0.7-2.1-0.5-4.4-2.6-5c-2.1-0.7-4.4,0.5-5,2.6l-2.7,8.3c-3.6-1.4-7.2-2.9-10.6-4.6l3.9-7.6c1-2,0.2-4.4-1.8-5.4
	c-2-1-4.4-0.2-5.4,1.8L90,90.6c-3.3-1.9-6.5-4-9.7-6.3l4.7-6.5c1.3-1.8,0.9-4.3-0.9-5.6c-1.8-1.3-4.3-0.9-5.6,0.9L74,79.4
	c-2-1.7-4-3.4-5.9-5.2c0.9-1,1.8-1.9,2.7-2.9C92,50.2,120.1,38.6,150,38.6z M62.9,80.3c2.1,2,4.2,3.8,6.5,5.6l-4.8,6.6
	c-1.3,1.8-0.9,4.3,0.9,5.6c0.7,0.5,1.5,0.8,2.3,0.8c1.2,0,2.5-0.6,3.2-1.6l4.7-6.4c3.5,2.5,7.1,4.8,10.7,6.9l-3.5,6.8
	c-1,2-0.2,4.4,1.8,5.4c0.6,0.3,1.2,0.4,1.8,0.4c1.5,0,2.9-0.8,3.6-2.2l3.4-6.7c3.8,1.9,7.8,3.6,11.8,5.1l-2.2,6.9
	c-0.7,2.1,0.5,4.4,2.6,5c0.4,0.1,0.8,0.2,1.2,0.2c1.7,0,3.3-1.1,3.8-2.8l2.2-6.9c4.1,1.2,8.3,2.3,12.5,3.1l-1.1,7
	c-0.3,2.2,1.1,4.2,3.3,4.6c0.2,0,0.4,0,0.6,0c1.9,0,3.6-1.4,3.9-3.4l1.1-7c4.2,0.5,8.5,0.9,12.8,1v8.1c0,2.2,1.8,4,4,4s4-1.8,4-4
	v-8.1c4.3-0.1,8.6-0.5,12.8-1l1.1,7c0.3,2,2,3.4,3.9,3.4c0.2,0,0.4,0,0.6-0.1c2.2-0.3,3.7-2.4,3.3-4.6l-1.1-7
	c4.2-0.8,8.4-1.9,12.5-3.1l2.2,6.9c0.6,1.7,2.1,2.8,3.8,2.8c0.4,0,0.8-0.1,1.2-0.2c2.1-0.7,3.2-2.9,2.6-5l-2.3-6.9
	c4-1.5,7.9-3.2,11.8-5.1l3.4,6.7c0.7,1.4,2.1,2.2,3.6,2.2c0.6,0,1.2-0.1,1.8-0.4c2-1,2.8-3.4,1.7-5.4l-3.5-6.8
	c3.7-2.1,7.3-4.4,10.7-6.9l4.7,6.4c0.8,1.1,2,1.6,3.2,1.6c0.8,0,1.6-0.2,2.4-0.8c1.8-1.3,2.2-3.8,0.9-5.6l-4.8-6.6
	c2.2-1.8,4.4-3.7,6.5-5.6c16.1,19.9,24.8,44.4,24.8,70.3s-8.7,50.5-24.8,70.3c-2.1-2-4.3-3.9-6.5-5.7l4.8-6.6
	c1.3-1.8,0.9-4.3-0.9-5.6c-1.8-1.3-4.3-0.9-5.6,0.9l-4.7,6.4c-3.5-2.5-7.1-4.8-10.7-6.9l3.5-6.8c1-2,0.2-4.4-1.7-5.4
	c-2-1-4.4-0.2-5.4,1.7l-3.4,6.7c-3.8-1.9-7.8-3.6-11.8-5.1l2.3-6.9c0.7-2.1-0.5-4.4-2.6-5c-2.1-0.7-4.4,0.5-5,2.6l-2.2,6.9
	c-4.1-1.2-8.3-2.3-12.5-3.1l1.1-7c0.3-2.2-1.1-4.2-3.3-4.6c-2.2-0.3-4.2,1.1-4.6,3.3l-1.1,7c-4.2-0.5-8.5-0.9-12.8-1v-8.1
	c0-2.2-1.8-4-4-4s-4,1.8-4,4v8.1c-4.3,0.1-8.6,0.5-12.8,1l-1.1-7c-0.3-2.2-2.4-3.7-4.6-3.3c-2.2,0.3-3.7,2.4-3.3,4.6l1.1,7
	c-4.2,0.8-8.4,1.9-12.5,3.1l-2.2-6.9c-0.7-2.1-2.9-3.3-5-2.6c-2.1,0.7-3.2,2.9-2.6,5l2.3,6.9c-4,1.5-7.9,3.2-11.8,5.1l-3.4-6.7
	c-1-2-3.4-2.8-5.4-1.7c-2,1-2.8,3.4-1.7,5.4l3.5,6.8c-3.7,2.1-7.3,4.4-10.7,6.9l-4.7-6.4c-1.3-1.8-3.8-2.2-5.6-0.9
	c-1.8,1.3-2.2,3.8-0.9,5.6l4.8,6.6c-2.2,1.8-4.4,3.7-6.5,5.7C46.8,201,38,176.5,38,150.6S46.8,100.1,62.9,80.3z M150,262.6
	c-29.9,0-58-11.6-79.2-32.8c-0.9-0.9-1.8-1.9-2.7-2.9c1.9-1.8,3.9-3.5,5.9-5.2l4.6,6.3c0.8,1.1,2,1.6,3.2,1.6c0.8,0,1.6-0.2,2.3-0.8
	c1.8-1.3,2.2-3.8,0.9-5.6l-4.7-6.5c3.1-2.2,6.4-4.3,9.7-6.3l3.8,7.4c0.7,1.4,2.1,2.2,3.6,2.2c0.6,0,1.2-0.1,1.8-0.4
	c2-1,2.8-3.4,1.7-5.4l-3.9-7.6c3.5-1.7,7-3.2,10.6-4.6l2.7,8.3c0.6,1.7,2.1,2.8,3.8,2.8c0.4,0,0.8-0.1,1.2-0.2
	c2.1-0.7,3.2-2.9,2.6-5l-2.7-8.4c3.7-1.1,7.5-2,11.3-2.8l1.4,8.8c0.3,2,2,3.4,3.9,3.4c0.2,0,0.4,0,0.6,0c2.2-0.3,3.7-2.4,3.3-4.6
	l-1.4-8.8c3.8-0.5,7.7-0.8,11.6-0.9v7.9c0,2.2,1.8,4,4,4s4-1.8,4-4v-7.9c3.9,0.1,7.8,0.4,11.6,0.9l-1.4,8.8
	c-0.3,2.2,1.1,4.2,3.3,4.6c0.2,0,0.4,0,0.6,0c1.9,0,3.6-1.4,3.9-3.4l1.4-8.7c3.8,0.7,7.6,1.7,11.3,2.8l-2.7,8.3
	c-0.7,2.1,0.5,4.4,2.6,5c0.4,0.1,0.8,0.2,1.2,0.2c1.7,0,3.3-1.1,3.8-2.8l2.7-8.3c3.6,1.4,7.2,2.9,10.6,4.6l-3.9,7.6
	c-1,2-0.2,4.4,1.7,5.4c0.6,0.3,1.2,0.4,1.8,0.4c1.5,0,2.9-0.8,3.6-2.2l3.8-7.4c3.3,1.9,6.5,4,9.7,6.3l-4.7,6.5
	c-1.3,1.8-0.9,4.3,0.9,5.6c0.7,0.5,1.5,0.8,2.3,0.8c1.2,0,2.5-0.6,3.2-1.6l4.6-6.3c2,1.7,4,3.4,5.9,5.2c-0.9,1-1.8,1.9-2.7,2.9
	C208.1,250.9,180,262.6,150,262.6z"/>
</svg>
