<?xml version="1.0" encoding="utf-8"?>
<!-- Generator: Adobe Illustrator 18.0.0, SVG Export Plug-In . SVG Version: 6.00 Build 0)  -->
<!DOCTYPE svg PUBLIC "-//W3C//DTD SVG 1.1//EN" "http://www.w3.org/Graphics/SVG/1.1/DTD/svg11.dtd">
<svg version="1.1" id="Layer_1" xmlns="http://www.w3.org/2000/svg" xmlns:xlink="http://www.w3.org/1999/xlink" x="0px" y="0px"
	 viewBox="0 0 300 300" enable-background="new 0 0 300 300" xml:space="preserve">
<path d="M205,93.6v72H93v-72H205 M205,85.6H93c-4.4,0-8,3.6-8,8v72c0,4.4,3.6,8,8,8h112c4.4,0,8-3.6,8-8v-72
	C213,89.1,209.5,85.6,205,85.6L205,85.6z M270.7,208.8L245,189.6v-104c0-17.6-14.4-32-32-32H85c-17.6,0-32,14.4-32,32v104
	l-25.6,19.2c-4,3-6.4,7.8-6.4,12.8v8c0,8.8,7.2,16,16,16h224c8.8,0,16-7.2,16-16v-8C277,216.5,274.7,211.8,270.7,208.8z M85,69.6
	h128c8.8,0,16,7.2,16,16v104H69v-104C69,76.8,76.2,69.6,85,69.6z M261,229.6H37v-8l32-24h160l32,24V229.6z"/>
</svg>
