<?xml version="1.0" encoding="utf-8"?>
<!-- Generator: Adobe Illustrator 18.0.0, SVG Export Plug-In . SVG Version: 6.00 Build 0)  -->
<!DOCTYPE svg PUBLIC "-//W3C//DTD SVG 1.1//EN" "http://www.w3.org/Graphics/SVG/1.1/DTD/svg11.dtd">
<svg version="1.1" id="Layer_1" xmlns="http://www.w3.org/2000/svg" xmlns:xlink="http://www.w3.org/1999/xlink" x="0px" y="0px"
	 viewBox="0 0 300 300" enable-background="new 0 0 300 300" xml:space="preserve">
<path d="M90,54.6c6.6,0,12,5.4,12,12s-5.4,12-12,12c-6.6,0-12-5.4-12-12S83.4,54.6,90,54.6 M90,46.6c-11,0-20,9-20,20s9,20,20,20
	c11,0,20-9,20-20S101.1,46.6,90,46.6L90,46.6z M210,54.6c6.6,0,12,5.4,12,12s-5.4,12-12,12c-6.6,0-12-5.4-12-12S203.4,54.6,210,54.6
	 M210,46.6c-11,0-20,9-20,20s9,20,20,20c11,0,20-9,20-20S221.1,46.6,210,46.6L210,46.6z M246,22.6H54c-17.6,0-32,14.4-32,32v192
	c0,17.6,14.4,32,32,32h192c17.6,0,32-14.4,32-32v-192C278,36.9,263.7,22.6,246,22.6z M54,38.6h192c8.8,0,16,7.2,16,16v40H38v-40
	C38,45.8,45.2,38.6,54,38.6z M246,262.6H54c-8.8,0-16-7.2-16-16v-144h224v144C262,255.4,254.8,262.6,246,262.6z M102,238.6
	c8.8,0,16-7.2,16-16v-72c0-8.8-7.2-16-16-16h-8c-8.8,0-16,7.2-16,16c0,5.9,3.2,11.1,8,13.9v58.1C86,231.4,93.2,238.6,102,238.6
	L102,238.6z M182,238.6c6.1,0,12-3.5,14.6-9.5l32-72c2.2-4.9,1.7-10.7-1.2-15.2s-8-7.3-13.4-7.3h-48c-8.8,0-16,7.2-16,16
	s7.2,16,16,16h23.4l-22,49.5c-3.6,8.1,0,17.5,8.1,21.1C177.7,238.1,179.9,238.6,182,238.6L182,238.6z"/>
</svg>
