<?xml version="1.0" encoding="utf-8"?>
<!-- Generator: Adobe Illustrator 18.0.0, SVG Export Plug-In . SVG Version: 6.00 Build 0)  -->
<!DOCTYPE svg PUBLIC "-//W3C//DTD SVG 1.1//EN" "http://www.w3.org/Graphics/SVG/1.1/DTD/svg11.dtd">
<svg version="1.1" id="Layer_1" xmlns="http://www.w3.org/2000/svg" xmlns:xlink="http://www.w3.org/1999/xlink" x="0px" y="0px"
	 viewBox="0 0 300 300" enable-background="new 0 0 300 300" xml:space="preserve">
<path d="M223.6,174c4-1.1,7.5-3.8,9.6-7.4c2.2-3.9,2.8-8.6,1.4-12.9l-4.4-13.7l10.6-9.7c3.3-3,5.2-7.3,5.2-11.8
	c0-4.5-1.9-8.8-5.2-11.8l-10.6-9.7l4.4-13.7c1.4-4.3,0.9-9-1.4-12.9c-2.2-3.9-6-6.7-10.4-7.6l-14-3.1l-3.1-14
	c-1-4.4-3.7-8.2-7.6-10.4c-2.5-1.4-5.2-2.1-8-2.1c-1.6,0-3.3,0.2-4.9,0.8l-13.7,4.4l-9.7-10.6c-3-3.3-7.3-5.2-11.8-5.2
	s-8.8,1.9-11.8,5.2l-9.7,10.6L114.9,34c-1.6-0.5-3.2-0.8-4.9-0.8c-2.8,0-5.5,0.7-8,2.1c-3.9,2.2-6.7,6-7.6,10.4l-3.1,14l-14,3.1
	c-4.4,1-8.2,3.7-10.4,7.6c-2.2,3.9-2.8,8.6-1.4,12.9l4.4,13.7l-10.6,9.7c-3.3,3-5.2,7.3-5.2,11.8s1.9,8.8,5.2,11.8l10.6,9.7
	l-4.4,13.7c-1.4,4.3-0.9,9,1.4,12.9c2.1,3.6,5.6,6.3,9.6,7.4L55,233.1c-2,5.6-0.8,11.8,3.2,16.2c3.1,3.4,7.4,5.3,11.9,5.3
	c1.3,0,2.6-0.2,3.9-0.5l19.5-4.9l10.3,20.5c2.7,5.5,8.3,8.8,14.3,8.8c0.7,0,1.4,0,2.1-0.1c6.8-0.9,12.2-6,13.6-12.7l10.5-52.3
	c1.8,0.7,3.8,1.1,5.9,1.1c2,0,4-0.4,5.9-1.1l10.5,52.3c1.3,6.7,6.8,11.8,13.6,12.7c0.7,0.1,1.4,0.1,2.1,0.1c6,0,11.6-3.4,14.3-8.8
	l10.3-20.5l19.5,4.9c1.3,0.3,2.6,0.5,3.9,0.5c4.5,0,8.8-1.9,11.9-5.3c4-4.4,5.2-10.6,3.1-16.2L223.6,174z M118,262.6l-16-32l-32,8
	l21.7-59.6l2.7,12.3c1,4.4,3.7,8.2,7.6,10.4c2.5,1.4,5.2,2.1,8,2.1c1.6,0,3.3-0.2,4.9-0.8l13.7-4.4l1.8,2L118,262.6z M133.5,180.4
	l-23.4,7.5l-5.3-24l-24-5.3l7.5-23.4L70,118.6L88.2,102l-7.5-23.4l24-5.3l5.3-24l23.4,7.5L150,38.6l16.6,18.2l23.4-7.5l5.3,24
	l24,5.3l-7.5,23.4l18.2,16.6l-18.2,16.6l7.5,23.4l-24,5.3l-5.3,24l-23.4-7.5l-16.6,18.2L133.5,180.4z M198,230.6l-16,32l-12.4-61.8
	l1.8-2l13.7,4.4c1.6,0.5,3.2,0.8,4.9,0.8c2.8,0,5.5-0.7,8-2.1c3.9-2.3,6.7-6,7.6-10.4l2.7-12.3l21.7,59.6L198,230.6z M150,70.6
	c26.5,0,48,21.5,48,48s-21.5,48-48,48s-48-21.5-48-48S123.6,70.6,150,70.6 M150,62.6c-30.9,0-56,25.1-56,56s25.1,56,56,56
	s56-25.1,56-56S181,62.6,150,62.6L150,62.6z"/>
</svg>
