<?xml version="1.0" encoding="utf-8"?>
<!-- Generator: Adobe Illustrator 18.0.0, SVG Export Plug-In . SVG Version: 6.00 Build 0)  -->
<!DOCTYPE svg PUBLIC "-//W3C//DTD SVG 1.1//EN" "http://www.w3.org/Graphics/SVG/1.1/DTD/svg11.dtd">
<svg version="1.1" id="Layer_1" xmlns="http://www.w3.org/2000/svg" xmlns:xlink="http://www.w3.org/1999/xlink" x="0px" y="0px"
	 viewBox="0 0 300 300" enable-background="new 0 0 300 300" xml:space="preserve">
<path d="M238,150.6c0,17.7-14.3,32-32,32c-17.7,0-32-14.3-32-32c0-17.7,14.3-32,32-32C223.7,118.6,238,132.9,238,150.6z M94,118.6
	c-17.7,0-32,14.3-32,32c0,17.7,14.3,32,32,32s32-14.3,32-32C126,132.9,111.7,118.6,94,118.6z M152.9,171.7c-1.6-1.6-4.1-1.6-5.7,0
	l-12,12c-1.6,1.6-1.6,4.1,0,5.7s4.1,1.6,5.7,0l9.2-9.2l9.2,9.2c0.8,0.8,1.8,1.2,2.8,1.2c1,0,2-0.4,2.8-1.2c1.6-1.6,1.6-4.1,0-5.7
	L152.9,171.7z M278,150.6c0,26.3-7.9,51.6-23,73.2c-3,4.3-7.9,6.8-13.1,6.8h-4.3c-8.3,13-19.4,24-32.6,32.3
	c-16.5,10.3-35.5,15.7-55,15.7s-38.6-5.4-55-15.7c-13.2-8.2-24.3-19.3-32.6-32.3h-4.3c-5.2,0-10.1-2.6-13.1-6.8
	c-15-21.5-23-46.8-23-73.2c0-34.2,13.3-66.3,37.5-90.5s56.3-37.5,90.5-37.5s66.3,13.3,90.5,37.5S278,116.4,278,150.6z M223.8,222.6
	H202v8c0,2.2-1.8,4-4,4s-4-1.8-4-4v-8h-16v8c0,2.2-1.8,4-4,4s-4-1.8-4-4v-8h-16v8c0,2.2-1.8,4-4,4s-4-1.8-4-4v-8h-16v8
	c0,2.2-1.8,4-4,4s-4-1.8-4-4v-8h-16v8c0,2.2-1.8,4-4,4s-4-1.8-4-4v-8H76.3c15.7,24.1,42.9,40,73.8,40S208.1,246.6,223.8,222.6z
	 M262,150.6c0-61.9-50.1-112-112-112S38,88.7,38,150.6c0,23.8,7.4,45.9,20.1,64h13.5H98v-8c0-2.2,1.8-4,4-4s4,1.8,4,4v8h16v-8
	c0-2.2,1.8-4,4-4s4,1.8,4,4v8h16v-8c0-2.2,1.8-4,4-4s4,1.8,4,4v8h16v-8c0-2.2,1.8-4,4-4s4,1.8,4,4v8h16v-8c0-2.2,1.8-4,4-4
	s4,1.8,4,4v8h26.4H242C254.6,196.4,262,174.4,262,150.6z"/>
</svg>
