<?xml version="1.0" encoding="utf-8"?>
<!-- Generator: Adobe Illustrator 18.0.0, SVG Export Plug-In . SVG Version: 6.00 Build 0)  -->
<!DOCTYPE svg PUBLIC "-//W3C//DTD SVG 1.1//EN" "http://www.w3.org/Graphics/SVG/1.1/DTD/svg11.dtd">
<svg version="1.1" id="Layer_1" xmlns="http://www.w3.org/2000/svg" xmlns:xlink="http://www.w3.org/1999/xlink" x="0px" y="0px"
	 viewBox="0 0 300 300" enable-background="new 0 0 300 300" xml:space="preserve">
<path d="M245,37.6H53c-17.6,0-32,14.4-32,32v128c0,17.6,14.4,32,32,32h17.4c-5.5,6-7,13.6-4.2,20.5c3,7.2,10,11.5,18.8,11.5h128
	c8.8,0,15.8-4.3,18.8-11.5c2.8-6.9,1.3-14.4-4.2-20.5H245c17.6,0,32-14.4,32-32v-128C277,51.9,262.7,37.6,245,37.6z M215.4,239.9
	c3.1,3.1,2.1,5.7-2.3,5.7H85c-4.4,0-5.5-2.5-2.3-5.7L93,229.6h112L215.4,239.9z M261,197.6c0,8.8-7.2,16-16,16H53
	c-8.8,0-16-7.2-16-16v-128c0-8.8,7.2-16,16-16h192c8.8,0,16,7.2,16,16V197.6z M237,77.6v112H61v-112H237 M237,69.6H61
	c-4.4,0-8,3.6-8,8v112c0,4.4,3.6,8,8,8h176c4.4,0,8-3.6,8-8v-112C245,73.1,241.5,69.6,237,69.6L237,69.6z"/>
</svg>
