<?xml version="1.0" encoding="utf-8"?>
<!-- Generator: Adobe Illustrator 18.0.0, SVG Export Plug-In . SVG Version: 6.00 Build 0)  -->
<!DOCTYPE svg PUBLIC "-//W3C//DTD SVG 1.1//EN" "http://www.w3.org/Graphics/SVG/1.1/DTD/svg11.dtd">
<svg version="1.1" id="Layer_1" xmlns="http://www.w3.org/2000/svg" xmlns:xlink="http://www.w3.org/1999/xlink" x="0px" y="0px"
	 viewBox="0 0 300 300" enable-background="new 0 0 300 300" xml:space="preserve">
<path d="M260.7,166.2c-1.3-4.2-5.8-6.6-10-5.3l-41.7,13l-43.9-25.3l43.9-25.3l41.7,13c0.8,0.2,1.6,0.4,2.4,0.4
	c3.4,0,6.6-2.2,7.6-5.6c1.3-4.2-1.1-8.7-5.3-10l-27.6-8.6L257,95.5c3.8-2.2,5.1-7.1,2.9-10.9c-2.2-3.8-7.1-5.1-10.9-2.9l-29.8,17.2
	l5.7-28.7c0.9-4.3-2-8.5-6.3-9.4c-4.3-0.9-8.5,2-9.4,6.3l-8.4,42.5L157,134.7V83.9l33.7-33.7c3.1-3.1,3.1-8.2,0-11.3
	c-3.1-3.1-8.2-3.1-11.3,0L157,61.3V28.6c0-4.4-3.6-8-8-8c-4.4,0-8,3.6-8,8v32.7l-22.3-22.3c-3.1-3.1-8.2-3.1-11.3,0
	c-3.1,3.1-3.1,8.2,0,11.3L141,83.9v50.8l-43.7-25.2L88.9,67c-0.9-4.3-5.1-7.1-9.4-6.3c-4.3,0.9-7.2,5.1-6.3,9.4l5.7,28.7L49,81.6
	c-3.8-2.2-8.7-0.9-10.9,2.9c-2.2,3.8-0.9,8.7,2.9,10.9l29.2,16.9l-27.6,8.6c-4.2,1.3-6.6,5.8-5.3,10c1.1,3.4,4.2,5.6,7.6,5.6
	c0.8,0,1.6-0.1,2.4-0.4l41.7-13l43.9,25.3l-43.9,25.3l-41.7-13c-4.2-1.3-8.7,1-10,5.3c-1.3,4.2,1,8.7,5.3,10l27.6,8.6l-29.2,16.9
	c-3.8,2.2-5.1,7.1-2.9,10.9c1.5,2.6,4.2,4,6.9,4c1.4,0,2.7-0.3,4-1.1l29.8-17.2L73.2,227c-0.9,4.3,2,8.5,6.3,9.4
	c0.5,0.1,1,0.2,1.6,0.2c3.7,0,7.1-2.6,7.8-6.4l8.4-42.5l43.7-25.2v50.8l-33.7,33.7c-3.1,3.1-3.1,8.2,0,11.3c3.1,3.1,8.2,3.1,11.3,0
	l22.3-22.3v32.7c0,4.4,3.6,8,8,8c4.4,0,8-3.6,8-8v-32.7l22.3,22.3c1.6,1.6,3.6,2.3,5.7,2.3c2,0,4.1-0.8,5.7-2.3
	c3.1-3.1,3.1-8.2,0-11.3L157,213.2v-50.8l43.7,25.2l8.4,42.5c0.8,3.8,4.1,6.4,7.8,6.4c0.5,0,1-0.1,1.6-0.2c4.3-0.9,7.1-5.1,6.3-9.4
	l-5.7-28.7l29.8,17.2c1.3,0.7,2.6,1.1,4,1.1c2.8,0,5.5-1.4,6.9-4c2.2-3.8,0.9-8.7-2.9-10.9l-29.2-16.9l27.6-8.6
	C259.6,174.9,262,170.4,260.7,166.2z"/>
</svg>
