<?xml version="1.0" encoding="utf-8"?>
<!-- Generator: Adobe Illustrator 18.0.0, SVG Export Plug-In . SVG Version: 6.00 Build 0)  -->
<!DOCTYPE svg PUBLIC "-//W3C//DTD SVG 1.1//EN" "http://www.w3.org/Graphics/SVG/1.1/DTD/svg11.dtd">
<svg version="1.1" id="Layer_1" xmlns="http://www.w3.org/2000/svg" xmlns:xlink="http://www.w3.org/1999/xlink" x="0px" y="0px"
	 viewBox="0 0 300 300" enable-background="new 0 0 300 300" xml:space="preserve">
<path d="M253.2,108.6c5.4-5.7,8.8-13.5,8.8-22c0-17.6-14.4-32-32-32s-32,14.4-32,32c0,8.5,3.4,16.3,8.8,22c-3,1.7-5.8,3.7-8.4,5.9
	c-5.3-9.1-13.1-16.6-22.5-21.5c8.6-7.3,14-18.2,14-30.4c0-22.1-17.9-40-40-40s-40,17.9-40,40c0,12.2,5.4,23.1,14,30.4
	c-9.4,4.9-17.1,12.4-22.4,21.5c-2.6-2.3-5.4-4.2-8.4-5.9c5.4-5.7,8.8-13.5,8.8-22c0-17.6-14.4-32-32-32c-17.6,0-32,14.4-32,32
	c0,8.5,3.4,16.3,8.8,22c-14.8,8.2-24.8,23.9-24.8,42v32c0,8.8,7.2,16,16,16v40c0,8.8,7.2,16,16,16h32c8.8,0,16-7.2,16-16v-26.2
	c2.4,1.4,5.1,2.2,8,2.2v48c0,8.8,7.2,16,16,16h48c8.8,0,16-7.2,16-16v-48c2.9,0,5.6-0.8,8-2.2v26.2c0,8.8,7.2,16,16,16h32
	c8.8,0,16-7.2,16-16v-40c8.8,0,16-7.2,16-16v-32C278,132.5,268,116.7,253.2,108.6z M70,70.6c8.8,0,16,7.2,16,16c0,8.8-7.2,16-16,16
	c-8.8,0-16-7.2-16-16C54,77.7,61.2,70.6,70,70.6z M86,154.6v84H74v-56c0-2.2-1.8-4-4-4s-4,1.8-4,4v56H54v-84c0-2.2-1.8-4-4-4
	s-4,1.8-4,4v28h-8v-32c0-17.7,14.3-32,32-32c10.3,0,19.4,4.8,25.2,12.3c-0.8,3.8-1.2,7.7-1.2,11.7v8h-4
	C87.8,150.6,86,152.4,86,154.6z M230,70.6c8.8,0,16,7.2,16,16c0,8.8-7.2,16-16,16c-8.8,0-16-7.2-16-16C214,77.7,221.2,70.6,230,70.6
	z M150,38.6c13.3,0,24,10.7,24,24c0,13.3-10.7,24-24,24s-24-10.7-24-24C126,49.3,136.8,38.6,150,38.6z M190,198.6h-8v-52
	c0-2.2-1.8-4-4-4s-4,1.8-4,4v116h-20v-64c0-2.2-1.8-4-4-4s-4,1.8-4,4v64h-20v-116c0-2.2-1.8-4-4-4s-4,1.8-4,4v52h-8v-56
	c0-22.1,17.9-40,40-40s40,17.9,40,40V198.6z M262,182.6h-8v-28c0-2.2-1.8-4-4-4s-4,1.8-4,4v84h-12v-56c0-2.2-1.8-4-4-4s-4,1.8-4,4
	v56h-12v-84c0-2.2-1.8-4-4-4h-4v-8c0-4-0.4-7.9-1.2-11.7c5.9-7.5,15-12.3,25.2-12.3c17.7,0,32,14.3,32,32V182.6z"/>
</svg>
