<?xml version="1.0" encoding="utf-8"?>
<!-- Generator: Adobe Illustrator 18.0.0, SVG Export Plug-In . SVG Version: 6.00 Build 0)  -->
<!DOCTYPE svg PUBLIC "-//W3C//DTD SVG 1.1//EN" "http://www.w3.org/Graphics/SVG/1.1/DTD/svg11.dtd">
<svg version="1.1" id="Layer_1" xmlns="http://www.w3.org/2000/svg" xmlns:xlink="http://www.w3.org/1999/xlink" x="0px" y="0px"
	 viewBox="0 0 300 300" enable-background="new 0 0 300 300" xml:space="preserve">
<path d="M150.1,54.6c8.8,0,16,7.2,16,16s-7.2,16-16,16c-8.8,0-16-7.2-16-16S141.2,54.6,150.1,54.6 M150.1,46.6
	c-13.3,0-24,10.7-24,24s10.7,24,24,24c13.3,0,24-10.7,24-24S163.3,46.6,150.1,46.6L150.1,46.6z M268.5,183.4
	c-10.6-8-25.6-5.8-33.6,4.8c-15.3,20.4-36.8,34.2-60.8,39.7v-61.3h24c13.3,0,24-10.7,24-24s-10.7-24-24-24h-24v-6.5
	c14-8.3,24-23.8,24-41.5c0-26.5-21.5-48-48-48c-26.5,0-48,21.5-48,48c0,17.7,10,33.2,24,41.5v6.5h-24c-13.3,0-24,10.7-24,24
	s10.7,24,24,24h24v61.3c-24-5.5-45.5-19.3-60.8-39.7c-8-10.6-23-12.7-33.6-4.8c-10.6,8-12.7,23-4.8,33.6
	c14,18.7,32.4,34.2,53.2,44.8c21.5,11,45.7,16.8,70,16.8c24.3,0,48.5-5.8,70-16.8c20.8-10.6,39.2-26.1,53.2-44.8
	C281.2,206.4,279.1,191.3,268.5,183.4z M260.4,207.4c-12.6,16.8-29.1,30.6-47.7,40.2c-19.5,10-40.6,15-62.7,15
	c-22.1,0-43.2-5.1-62.7-15c-18.6-9.5-35.1-23.4-47.7-40.2c-2.7-3.5-1.9-8.5,1.6-11.2c3.5-2.7,8.5-1.9,11.2,1.6
	c21.7,28.9,54,46.3,89.6,48.5v-95.7h-40c-4.4,0-8-3.6-8-8s3.6-8,8-8h40v-33c-13.8-3.6-24-16.1-24-31c0-17.7,14.3-32,32-32
	c17.7,0,32,14.3,32,32c0,14.9-10,27.4-24,31v33h40c4.4,0,8,3.6,8,8s-3.6,8-8,8h-40v95.7c36-2.3,67.9-19.7,89.6-48.5
	c2.7-3.5,7.7-4.2,11.2-1.6C262.4,198.8,263.1,203.8,260.4,207.4z"/>
</svg>
